/* XPM */
static char * close_pressed_xpm[] = {
"12 18 4 1",
".	c #939393",
"#	c #FFFFFF",
"+	c #DEDEDE",
"@	c #dd0000",
"............",
"############",
"++++++++++++",
"++++++++++++",
"++++++++++++",
"++++++++++++",
"++@@++++@@++",
"++@@@++@@@++",
"+++@@@@@@+++",
"++++@@@@++++",
"++++@@@@++++",
"+++@@@@@@+++",
"++@@@++@@@++",
"++@@++++@@++",
"++++++++++++",
"++++++++++++",
"++++++++++++",
"++++++++++++"};
