/* XPM */
static char * close_prelight_xpm[] = {
"12 18 8 1",
" 	c None",
".	c #aa0000",
"+	c #dd0000",
"@	c #DEDEDE s active_color_2",
"#	c #9B9B9B",
"$	c #FFFFFF",
"%	c #E5E5E5",
"&	c #8B8B8B",
"++++++++++++",
"++++++++++++",
"++++++++++++",
"@@@@@@@@@@@@",
"@@@@@@@@@@@@",
"@@@@@@@@@@@@",
"@@##@@@@##@@",
"@@$$#@@#$$@@",
"@@%$$##$$%@@",
"@@@%$$$$%@@@",
"@@@@&$$&@@@@",
"@@@#$$$$#@@@",
"@@#$$%%$$#@@",
"@@$$%@@%$$@@",
"@@%%@@@@%%@@",
"@@@@@@@@@@@@",
"@@@@@@@@@@@@",
"@@@@@@@@@@@@"};
