/* XPM */
static char * shade_toggled_active_xpm[] = {
"12 18 18 1",
" 	c None",
".	c #8D8D8D",
"+	c #FFFFFF",
"@	c #DEDEDE s active_color_2",
"#	c #A8A8A8",
"$	c #fff",
"%	c #@@@",
"&	c #fff",
"*	c #fff",
"=	c #fff",
"-	c #9E9E9E",
";	c #fff",
">	c #fff",
",	c #A4A4A4",
"'	c #fff",
")	c #E1E1E1",
"!	c #E0E0E0",
"~	c #fff",
"@@@@@@@@@@@@",
"@@@@@@@@@@@@",
"@@@@@@@@@@@@",
"@@@@@@@@@@@@",
"@@@@@@@@@@@@",
"@@@@@@@@@@@@",
"@@@@@@@@@@@@",
"@@#$%@@%$&@@",
"@@'''..'''@@",
"@@@''''''#@@",
"@@@)''''#@@@",
"@@@@''''@@@@",
"@@@@@''@@@@@",
"@@@@@@@@@@@@",
"@@@@@@@@@@@@",
"@@@@@@@@@@@@",
"@@@@@@@@@@@@",
"@@@@@@@@@@@@"};
