/* XPM */
static char * shade_inactive_xpm[] = {
"12 18 13 1",
" 	c None",
".	c #8D8D8D",
"+	c #FFFFFF",
"@	c #DEDEDE s active_color_2",
"#	c #fff",
"$	c #B1B1B1",
"%	c #fff",
"&	c #EAEAEA",
"*	c #fff",
"=	c #fff",
"-	c #B0B0B0",
";	c #fff",
">	c #fff",
"@@@@@@@@@@@@",
"@@@@@@@@@@@@",
"@@@@@@@@@@@@",
"@@@@@@@@@@@@",
"@@@@@@@@@@@@",
"@@@@@@@@@@@@",
"@@@@@@@@@@@@",
"@@@@@#$@@@@@",
"@@@@#%%&@@@@",
"@@@$*==*=@@@",
"@@-;#>>#;#@@",
"@@>>>@@>>>@@",
"@@@@@@@@@@@@",
"@@@@@@@@@@@@",
"@@@@@@@@@@@@",
"@@@@@@@@@@@@",
"@@@@@@@@@@@@",
"@@@@@@@@@@@@"};
